PathFileType	4	(X/Y/Z)	Patient4_TMGait_0pt4_03_left_14.trc.trc
DataRate	CameraRate	NumFrames	NumMarkers	Units	OrigDataRate	OrigDataStartFrame	OrigNumFrames
74.074074074074	74.074074074074	4	33	mm	74.074074074074	53	       141
Frame#	Time	Sacral			L.Shoulder			Chest			R.Shoulder			Neck			R.ASIS			L.ASIS			R.Thigh.Superior			R.Thigh.Lateral			R.Thigh.Inferior			R.Patella			L.Thigh.Superior			L.Thigh.Lateral			L.Thigh.Inferior			L.Patella			L.Shank.Superior			L.Shank.Lateral			L.Shank.Inferior			R.Shank.Superior			R.Shank.Lateral			R.Shank.Inferior			R.Heel			R.Midfoot.Superior			R.Midfoot.Lateral			R.Toe			L.Heel			L.Midfoot.Lateral			L.Midfoot.Superior			L.Toe			L.Elbow			L.Wrist			R.Elbow			R.Wrist			
		X1	Y1	Z1	X2	Y2	Z2	X3	Y3	Z3	X4	Y4	Z4	X5	Y5	Z5	X6	Y6	Z6	X7	Y7	Z7	X8	Y8	Z8	X9	Y9	Z9	X10	Y10	Z10	X11	Y11	Z11	X12	Y12	Z12	X13	Y13	Z13	X14	Y14	Z14	X15	Y15	Z15	X16	Y16	Z16	X17	Y17	Z17	X18	Y18	Z18	X19	Y19	Z19	X20	Y20	Z20	X21	Y21	Z21	X22	Y22	Z22	X23	Y23	Z23	X24	Y24	Z24	X25	Y25	Z25	X26	Y26	Z26	X27	Y27	Z27	X28	Y28	Z28	X29	Y29	Z29	X30	Y30	Z30	X31	Y31	Z31	X32	Y32	Z32	X33	Y33	Z33	

53	18.732000000000	837.861932354809	1006.783186252557	431.095464246954	1030.988448593130	1431.886014642295	243.253567224516	1127.912481549622	1365.216936093206	408.711876259510	1039.029379455427	1440.667356853487	579.505022504455	1011.609543850408	1495.940687847203	398.775109677566	1063.799356655464	946.185862400091	555.141324258461	1058.432610976919	960.584262162893	281.329726511748	1140.543827906595	767.598013241168	532.323254304904	1091.665814716839	649.387180031535	607.548172546770	1183.066337824110	604.635309405972	533.964046039590	1193.978857896010	492.528297583775	559.437948915843	1110.024830688245	749.906787098166	312.913093368669	1024.252682211000	633.407313160822	250.825786362826	1107.187744483433	556.545444169806	316.844819046572	1107.647664687118	485.906439171158	327.002736964803	1076.229087114701	412.916990258582	318.353049061121	983.788509205883	304.317555226307	262.117518604139	1020.943698335837	189.933454397223	334.710641649337	1113.562169185118	421.970537932639	566.837949204475	988.197040267374	392.559269180644	625.393779395013	967.640629500710	283.170787146186	579.858663139068	767.329146684397	246.531207991024	549.351775541496	921.015980422376	156.288440755524	591.847759018088	811.805751086149	173.429882241387	621.234025241541	964.714751727393	33.231552102503	614.420335118675	883.626097652365	38.997579484936	368.482748251857	959.430190623277	35.517853407576	289.833014125260	1042.478232316809	95.886216619084	320.754051891750	1171.841388134068	41.277918944228	293.798261684949	988.873283527615	1094.275617692867	99.169198325082	1161.526674633101	896.075470497406	110.111729893705	980.110285764709	1101.773479699090	710.270432990852	1050.825693209673	851.763589479153	739.712776614350	
54	18.745500000000	836.936919510124	1007.425145318084	429.182096335927	1032.070918318126	1432.409154912285	241.954881087278	1127.387816027732	1365.915522392496	408.379196742093	1036.875886494384	1441.563361302392	578.229838133941	1011.404714792798	1496.578908815698	397.342045959034	1062.242916244834	947.543775299712	554.685027828634	1058.331401228274	960.887027457736	280.931935053580	1141.745988924550	771.750949780719	531.321141593256	1095.723804155390	652.853921189879	606.886611180110	1187.890133590686	609.860825877833	533.156650999671	1201.215619145069	497.675026040521	558.797926232952	1108.493692639310	749.298229443104	312.607368353840	1021.340533122608	633.601645413370	250.407154057936	1103.244801958527	555.972133870804	316.641252085922	1103.057297175673	485.491846577270	326.894036498894	1071.543889177767	412.767405459829	318.121402127248	978.869100502375	304.353590001410	261.924493246435	1015.747725202252	189.896360082784	334.608144126857	1121.518149339407	425.932037917399	566.095162080158	996.178157886651	395.146306826605	624.130861408621	977.068830819973	285.401990673791	578.715257575139	777.356366939960	246.242261876372	547.631260197455	932.027780941228	157.975476502282	590.366268935832	822.591450986619	173.580275138185	619.540167335020	977.149104007141	34.455173908723	612.922907872544	878.157994261542	39.027113973940	368.435608053243	953.992599410735	35.536220807298	289.786682402126	1037.058633723684	95.880264640725	320.694633374757	1166.409339666019	41.211416444048	293.729761494934	993.749499278612	1094.990090610902	96.585670652223	1171.013687161332	901.448484435624	111.150615760644	973.548419810712	1103.314637865145	708.391891842064	1039.092160540914	852.225948393504	739.752788189020	
55	18.759000000000	836.016743944802	1008.233171663683	427.343751898671	1033.279087239492	1433.024400933896	240.830093930518	1126.931921817010	1366.681023943983	408.211389016006	1034.818658012155	1442.544735086078	577.088397240823	1011.256132739261	1497.291055906638	396.082159736873	1060.583330389844	948.987571087657	554.400586374638	1058.292888434568	961.271286576322	280.717700813916	1142.460045755431	775.782558963352	530.577877846734	1099.056720168408	656.302907906340	606.462257746981	1191.854616790191	614.918266450679	532.600790502082	1207.524614941655	502.880189302440	558.457008661134	1106.787764633144	748.709538363850	312.639494432270	1018.277824865718	633.863419377665	250.132021281553	1099.019870777378	555.439668009195	316.648654475082	1098.148623199615	485.128916691778	326.929792798787	1066.597181283765	412.714064027194	317.976082629672	973.749029599652	304.442095329699	261.796640989263	1010.445527113184	189.913536890815	334.537869838052	1128.977870042135	429.695013177070	565.599278367847	1003.974124350525	396.579379648557	623.133509315079	987.103509428667	286.413497185944	577.761034534428	788.206242348015	242.900542812598	546.229049597521	944.709760761568	158.285763348857	588.979552572782	835.012458505950	171.175382805961	618.070397240862	992.609225394233	35.376915057439	611.371135572386	872.678214170669	39.055347441376	368.396744459266	948.547342981736	35.557365025648	289.750479954414	1031.630908111171	95.878838988703	320.641500252405	1160.967562583370	41.161579762097	293.668078359987	998.488713158260	1095.782295580849	94.412296223664	1180.131628462626	906.993559818634	112.675137479359	967.363874081510	1104.901268333370	706.551813481675	1028.206152131647	852.928344882206	739.561916898405	
56	18.772500000000	835.099285446494	1009.160191910278	425.573664507889	1034.632749682772	1433.679263985307	239.874682359701	1126.560241523398	1367.458438397148	408.204515408444	1032.874294793449	1443.564110787630	576.076703621471	1011.181057024475	1498.031885661657	394.985454914730	1058.813054347857	950.453761850066	554.283608548368	1058.339184709209	961.727416960839	280.674338820382	1142.715954313437	779.603710605437	530.102628319972	1101.660726797102	659.619542602985	606.287020819718	1194.950358648774	619.662049966709	532.307398060312	1212.860641143852	508.021711481173	558.416652147230	1104.900084434012	748.126222393537	312.995073320272	1015.096959547151	634.173657272230	249.970611046295	1094.550738237439	554.940473912365	316.840204470756	1092.961903026181	484.806313133462	327.082416218611	1061.425015495044	412.736231258346	317.898922828421	968.460999361749	304.566138417406	261.718487238816	1005.052176506148	189.970693547192	334.493054409654	1135.922871195950	433.164357254099	565.362589176323	1011.662150807575	396.770345420536	622.474057758090	997.816521798867	286.173928630818	577.067693603388	800.092430151136	236.632992221216	545.248533095539	959.109170037444	157.210718706737	587.812343011844	849.179095332440	166.339146517541	616.947874490357	1010.977638147502	35.877885804660	609.926387578457	867.191651896027	39.079074542671	368.365161865738	943.096222277545	35.577349407085	289.723022068682	1026.196397897560	95.880324812874	320.594284547164	1155.518810996228	41.128030892460	293.613453889729	1003.073850929201	1096.601454758543	92.621226732267	1188.867807368936	912.661586726829	114.674840761435	961.596050688649	1106.470806821081	704.762192815223	1018.234203577245	853.781621190459	739.176753360802	
